<svg xmlns="http://www.w3.org/2000/svg" xmlns:xlink="http://www.w3.org/1999/xlink" version="1.1" width="256" height="256" viewBox="0 0 256 256" xml:space="preserve">
<g style="stroke: none; stroke-width: 0; stroke-dasharray: none; stroke-linecap: butt; stroke-linejoin: miter; stroke-miterlimit: 10; fill: none; fill-rule: nonzero; opacity: 1;" transform="translate(1.4065934065934016 1.4065934065934016) scale(2.81 2.81)">
	<rect x="0" y="0" rx="0" ry="0" width="90" height="90" style="stroke: none; stroke-width: 1; stroke-dasharray: none; stroke-linecap: butt; stroke-linejoin: miter; stroke-miterlimit: 10; fill: rgb(42,181,64); fill-rule: nonzero; opacity: 1;" transform=" matrix(1 0 0 1 0 0) "/>
	<path d="M 17.609 44.751 c -0.002 4.846 1.265 9.577 3.671 13.747 l -3.902 14.248 l 14.582 -3.823 c 4.018 2.191 8.541 3.346 13.144 3.347 h 0.012 c 15.159 0 27.5 -12.337 27.506 -27.497 c 0.003 -7.348 -2.856 -14.256 -8.049 -19.454 c -5.194 -5.197 -12.099 -8.061 -19.457 -8.064 C 29.954 17.255 17.615 29.589 17.609 44.751 M 26.292 57.779 l -0.544 -0.865 c -2.289 -3.639 -3.497 -7.845 -3.495 -12.163 c 0.005 -12.601 10.26 -22.853 22.871 -22.853 c 6.107 0.002 11.846 2.383 16.163 6.703 c 4.317 4.32 6.692 10.062 6.69 16.169 c -0.006 12.602 -10.261 22.855 -22.862 22.855 h -0.009 c -4.103 -0.002 -8.127 -1.104 -11.636 -3.186 l -0.835 -0.495 l -8.653 2.269 L 26.292 57.779 z M 45.116 72.27 L 45.116 72.27 L 45.116 72.27 C 45.115 72.27 45.115 72.27 45.116 72.27" style="stroke: none; stroke-width: 1; stroke-dasharray: none; stroke-linecap: butt; stroke-linejoin: miter; stroke-miterlimit: 10; fill: rgb(255,255,255); fill-rule: nonzero; opacity: 1;" transform=" matrix(1 0 0 1 0 0) " stroke-linecap="round"/>
	<path d="M 38.241 33.255 c -0.515 -1.145 -1.057 -1.167 -1.546 -1.188 c -0.401 -0.017 -0.859 -0.016 -1.317 -0.016 c -0.458 0 -1.203 0.172 -1.833 0.86 c -0.63 0.688 -2.406 2.35 -2.406 5.732 c 0 3.382 2.463 6.649 2.806 7.108 c 0.344 0.458 4.755 7.619 11.74 10.374 c 5.806 2.289 6.987 1.834 8.247 1.719 c 1.26 -0.114 4.066 -1.662 4.639 -3.267 c 0.573 -1.605 0.573 -2.98 0.401 -3.267 c -0.172 -0.286 -0.63 -0.458 -1.317 -0.802 c -0.688 -0.344 -4.066 -2.007 -4.696 -2.236 c -0.63 -0.229 -1.088 -0.343 -1.547 0.345 c -0.458 0.687 -1.774 2.235 -2.176 2.693 c -0.401 0.459 -0.802 0.517 -1.489 0.173 c -0.688 -0.345 -2.901 -1.07 -5.527 -3.411 c -2.043 -1.822 -3.422 -4.071 -3.824 -4.759 c -0.401 -0.687 -0.043 -1.06 0.302 -1.402 c 0.309 -0.308 0.688 -0.802 1.031 -1.204 c 0.343 -0.401 0.457 -0.688 0.686 -1.146 c 0.229 -0.459 0.115 -0.86 -0.057 -1.204 C 40.188 38.012 38.852 34.613 38.241 33.255" style="stroke: none; stroke-width: 1; stroke-dasharray: none; stroke-linecap: butt; stroke-linejoin: miter; stroke-miterlimit: 10; fill: rgb(255,255,255); fill-rule: nonzero; opacity: 1;" transform=" matrix(1 0 0 1 0 0) " stroke-linecap="round"/>
</g>
</svg>